#define cpu_width 9
#define cpu_height 12
static unsigned char cpu_bits[] = {
   0x00, 0x00, 0x00, 0x00, 0x54, 0x00, 0x54, 0x00, 0xff, 0x01, 0x44, 0x00,
   0xc7, 0x01, 0x44, 0x00, 0xff, 0x01, 0x54, 0x00, 0x54, 0x00, 0x00, 0x00 };
