#define imgrid_width 12
#define imgrid_height 12
static unsigned char imgrid_bits[] = {
   0x00, 0x00, 0x00, 0x00, 0x6c, 0x03, 0x6c, 0x03, 0x00, 0x03, 0x6c, 0x03,
   0x6c, 0x03, 0x00, 0x03, 0x6c, 0x03, 0x6c, 0x03, 0x00, 0x00, 0x00, 0x00 };
