#define mem_width 9
#define mem_height 12
static unsigned char mem_bits[] = {
   0x00, 0x00, 0x00, 0x00, 0x92, 0x00, 0x92, 0x00, 0xff, 0x01, 0xff, 0x01,
   0xff, 0x01, 0xff, 0x01, 0x92, 0x00, 0x92, 0x00, 0x00, 0x00, 0x00, 0x00 };
