#define pause_width 8
#define pause_height 9
static unsigned char pause_bits[] = {
   0x00, 0xe7, 0xe7, 0xe7, 0xe7, 0xe7, 0xe7, 0xe7, 0xe7 };
