#define play_width 8
#define play_height 8
static unsigned char play_bits[] = {
   0x00, 0x03, 0x0f, 0x3f, 0xff, 0x3f, 0x0f, 0x03 };
